#!OML:ASF E:\emotionWalksFemale\Project 1\Capture day 1\Session 1\Female1.ASF
:FULLY-SPECIFIED
:DEGREES
139
root 8.80404 15.046 41.6265 179.994 -5.02585 178.305
lowerback 4.33229 0.826851 0.433466
upperback -5.56332 0.958153 0.18482
thorax -8.26629 0.363733 -0.14535
lowerneck -3.68199 15.0543 9.69148
upperneck 12.2112 19.4419 -0.642815
head 5.29207 9.85593 -0.40818
rclavicle 4.27387e-015 -6.36111e-015
rhumerus -49.3414 18.2265 -98.181
rradius 38.9389
rwrist -0.140196
rhand 160.257 -69.8216
rfingers 7.12502
rthumb -173.412 -39.944
lclavicle 4.27387e-015 -6.36111e-015
lhumerus -45.5851 -1.34829 86.1707
lradius 37.7231
lwrist -15.8078
lhand -5.19741 -31.8706
lfingers 7.12502
lthumb 20.6037 -2.94408
rfemur -6.4892 10.7274 23.321
rtibia 31.7505
rfoot -30.2564 -27.4221
rtoes 14.61
lfemur -8.05298 -22.4203 -26.6136
ltibia 31.2708
lfoot -27.0292 20.6241
ltoes -18.6438
140
root 8.79981 15.0478 41.6262 180.111 -5.10195 178.151
lowerback 4.27724 0.821626 0.305755
upperback -5.61183 0.933416 0.155295
thorax -8.28832 0.356273 -0.101353
lowerneck -3.70784 15.0469 9.67372
upperneck 12.2583 19.4316 -0.648936
head 5.30947 9.84953 -0.404466
rclavicle 1.49089e-016 -1.43125e-014
rhumerus -49.3338 18.2358 -98.1227
rradius 38.9087
rwrist -0.0916907
rhand 160.338 -69.8332
rfingers 7.12502
rthumb -173.334 -39.9581
lclavicle 1.49089e-016 -1.43125e-014
lhumerus -45.7158 -1.32314 86.1673
lradius 38.0086
lwrist -15.4672
lhand -4.26734 -31.589
lfingers 7.12502
lthumb 21.4972 -2.76188
rfemur -6.60327 10.586 23.0968
rtibia 31.773
rfoot -30.2908 -27.359
rtoes 14.5965
lfemur -8.16276 -22.4258 -26.746
ltibia 31.2468
lfoot -27.0215 20.497
ltoes -16.9871
141
root 8.80157 15.0503 41.6216 180.026 -5.05179 178.321
lowerback 4.32108 0.833556 0.394293
upperback -5.59261 0.964481 0.231548
thorax -8.29299 0.369538 -0.074792
lowerneck -3.68829 15.0396 9.69405
upperneck 12.2619 19.429 -0.703194
head 5.31478 9.84605 -0.423761
rclavicle -6.4605e-016 2.78299e-015
rhumerus -49.3006 18.255 -98.0875
rradius 38.8138
rwrist -0.0146563
rhand 160.404 -69.7705
rfingers 7.12502
rthumb -173.27 -39.8975
lclavicle -6.4605e-016 2.78299e-015
lhumerus -45.7388 -1.21764 86.083
lradius 38.2306
lwrist -14.8787
lhand -2.92075 -31.4525
lfingers 7.12502
lthumb 22.79 -2.77878
rfemur -6.51659 10.7645 23.3311
rtibia 31.83
rfoot -30.6435 -27.2165
rtoes 15.5867
lfemur -8.04562 -22.4095 -26.5743
ltibia 31.1808
lfoot -27.1111 20.3567
ltoes -16.8496
142
root 8.79588 15.0531 41.6252 180.089 -5.11093 178.231
lowerback 4.3087 0.805454 0.426728
upperback -5.61083 0.923826 0.175963
thorax -8.30405 0.344961 -0.146685
lowerneck -3.64732 15.0324 9.71214
upperneck 12.2224 19.4316 -0.777605
head 5.305 9.84415 -0.451785
rclavicle -8.79622e-015 3.57812e-015
rhumerus -49.2677 18.2504 -98.0936
rradius 38.8036
rwrist -0.0764824
rhand 160.433 -69.6957
rfingers 7.12502
rthumb -173.242 -39.8235
lclavicle -8.79622e-015 3.57812e-015
lhumerus -45.755 -1.15768 86.0411
lradius 38.023
lwrist -15.4854
lhand -3.94463 -31.6114
lfingers 7.12502
lthumb 21.8071 -2.82006
rfemur -6.57437 10.6171 23.1719
rtibia 31.8715
rfoot -30.9256 -27.0229
rtoes 16.0201
lfemur -8.07572 -22.4664 -26.6755
ltibia 31.1349
lfoot -27.092 20.3025
ltoes -16.6006
143
root 8.79854 15.0535 41.6232 180.095 -5.11977 178.246
lowerback 4.3093 0.805222 0.393768
upperback -5.62428 0.920134 0.181961
thorax -8.31967 0.344848 -0.121496
lowerneck -3.58904 15.0309 9.70696
upperneck 12.1638 19.4378 -0.793193
head 5.27842 9.84659 -0.462544
rclavicle 1.67973e-014 5.56597e-015
rhumerus -49.3217 18.2805 -98.1666
rradius 38.8321
rwrist -0.29151
rhand 160.387 -69.6358
rfingers 7.12502
rthumb -173.286 -39.7622
lclavicle 1.67973e-014 5.56597e-015
lhumerus -45.7137 -1.12037 86.013
lradius 37.7903
lwrist -15.8548
lhand -4.42027 -31.5778
lfingers 7.12502
lthumb 21.3503 -2.73396
rfemur -6.57661 10.69 23.2126
rtibia 31.87
rfoot -31.0339 -27.1605
rtoes 15.7583
lfemur -8.09106 -22.4994 -26.6466
ltibia 31.1402
lfoot -27.1532 20.2912
ltoes -16.0598
